<svg width="321" height="145" viewBox="0 0 321 145" fill="none" xmlns="http://www.w3.org/2000/svg">
<path d="M9.232 139V115.544H15.92C17.6693 115.544 19.2053 115.768 20.528 116.216C21.8507 116.643 22.8747 117.357 23.6 118.36C24.3253 119.363 24.688 120.717 24.688 122.424C24.688 124.067 24.3253 125.421 23.6 126.488C22.8747 127.555 21.8613 128.355 20.56 128.888C19.2587 129.4 17.7547 129.656 16.048 129.656H12.176V139H9.232ZM12.176 127.256H15.664C17.712 127.256 19.2373 126.872 20.24 126.104C21.2427 125.336 21.744 124.109 21.744 122.424C21.744 120.717 21.2213 119.544 20.176 118.904C19.152 118.264 17.6053 117.944 15.536 117.944H12.176V127.256ZM30.794 139V121.624H33.194L33.482 124.792H33.546C34.1433 123.683 34.8687 122.808 35.722 122.168C36.5967 121.507 37.514 121.176 38.474 121.176C38.8793 121.176 39.2207 121.208 39.498 121.272C39.7967 121.315 40.074 121.411 40.33 121.56L39.786 124.088C39.4873 124.003 39.2207 123.939 38.986 123.896C38.7513 123.832 38.4527 123.8 38.09 123.8C37.386 123.8 36.6287 124.109 35.818 124.728C35.0073 125.325 34.314 126.36 33.738 127.832V139H30.794ZM44.8003 139V121.624H47.7443V139H44.8003ZM46.2723 118.04C45.6963 118.04 45.2269 117.869 44.8643 117.528C44.5229 117.165 44.3523 116.685 44.3523 116.088C44.3523 115.512 44.5229 115.053 44.8643 114.712C45.2269 114.371 45.6963 114.2 46.2723 114.2C46.8483 114.2 47.3176 114.371 47.6803 114.712C48.0429 115.053 48.2243 115.512 48.2243 116.088C48.2243 116.685 48.0429 117.165 47.6803 117.528C47.3176 117.869 46.8483 118.04 46.2723 118.04ZM58.9567 139L52.6847 121.624H55.7247L58.9887 131.512C59.2661 132.365 59.5327 133.229 59.7887 134.104C60.0661 134.957 60.3327 135.8 60.5887 136.632H60.7487C61.0261 135.8 61.2928 134.957 61.5487 134.104C61.8261 133.229 62.0927 132.365 62.3488 131.512L65.6447 121.624H68.5247L62.3807 139H58.9567ZM76.6878 139.416C75.7278 139.416 74.8638 139.224 74.0958 138.84C73.3278 138.456 72.7198 137.901 72.2718 137.176C71.8451 136.429 71.6318 135.533 71.6318 134.488C71.6318 132.589 72.4744 131.139 74.1598 130.136C75.8664 129.112 78.5758 128.397 82.2878 127.992C82.2878 127.245 82.1811 126.541 81.9678 125.88C81.7758 125.197 81.4238 124.653 80.9118 124.248C80.3998 123.821 79.6638 123.608 78.7038 123.608C77.7011 123.608 76.7518 123.811 75.8558 124.216C74.9811 124.6 74.1918 125.016 73.4878 125.464L72.3678 123.448C72.9011 123.107 73.5198 122.765 74.2238 122.424C74.9278 122.061 75.6958 121.763 76.5278 121.528C77.3598 121.293 78.2451 121.176 79.1838 121.176C80.5918 121.176 81.7331 121.475 82.6078 122.072C83.5038 122.669 84.1544 123.501 84.5598 124.568C84.9864 125.613 85.1998 126.861 85.1998 128.312V139H82.7998L82.5438 136.92H82.4478C81.6371 137.603 80.7411 138.189 79.7598 138.68C78.7998 139.171 77.7758 139.416 76.6878 139.416ZM77.5198 137.048C78.3518 137.048 79.1411 136.856 79.8878 136.472C80.6558 136.088 81.4558 135.523 82.2878 134.776V129.944C80.3464 130.157 78.7998 130.467 77.6478 130.872C76.4958 131.256 75.6744 131.736 75.1838 132.312C74.6931 132.867 74.4478 133.528 74.4478 134.296C74.4478 135.299 74.7464 136.013 75.3438 136.44C75.9411 136.845 76.6664 137.048 77.5198 137.048ZM97.1965 139.416C95.9805 139.416 95.0098 139.181 94.2845 138.712C93.5592 138.221 93.0365 137.539 92.7165 136.664C92.4178 135.789 92.2685 134.776 92.2685 133.624V123.992H89.6765V121.784L92.4285 121.624L92.7485 116.728H95.1805V121.624H99.9165V123.992H95.1805V133.72C95.1805 134.765 95.3725 135.587 95.7565 136.184C96.1618 136.76 96.8658 137.048 97.8685 137.048C98.1885 137.048 98.5298 137.005 98.8925 136.92C99.2552 136.813 99.5752 136.696 99.8525 136.568L100.429 138.776C99.9378 138.947 99.4152 139.096 98.8605 139.224C98.3058 139.352 97.7512 139.416 97.1965 139.416ZM111.896 139.416C110.339 139.416 108.931 139.053 107.672 138.328C106.414 137.603 105.411 136.568 104.664 135.224C103.939 133.859 103.576 132.227 103.576 130.328C103.576 128.899 103.79 127.629 104.216 126.52C104.643 125.389 105.219 124.429 105.944 123.64C106.691 122.829 107.534 122.221 108.472 121.816C109.411 121.389 110.371 121.176 111.352 121.176C112.846 121.176 114.104 121.507 115.128 122.168C116.152 122.829 116.931 123.779 117.464 125.016C118.019 126.232 118.296 127.672 118.296 129.336C118.296 129.656 118.286 129.955 118.264 130.232C118.243 130.509 118.211 130.765 118.168 131H106.456C106.52 132.237 106.798 133.315 107.288 134.232C107.8 135.128 108.472 135.832 109.304 136.344C110.136 136.835 111.107 137.08 112.216 137.08C113.07 137.08 113.838 136.963 114.52 136.728C115.224 136.472 115.907 136.131 116.568 135.704L117.592 137.656C116.846 138.147 116.003 138.563 115.064 138.904C114.126 139.245 113.07 139.416 111.896 139.416ZM106.424 128.92H115.736C115.736 127.171 115.352 125.837 114.584 124.92C113.838 123.981 112.782 123.512 111.416 123.512C110.606 123.512 109.838 123.725 109.112 124.152C108.408 124.579 107.811 125.187 107.32 125.976C106.851 126.765 106.552 127.747 106.424 128.92ZM139.716 139.416C138.052 139.416 136.516 139.107 135.108 138.488C133.721 137.869 132.526 137.027 131.524 135.96L133.284 133.912C134.116 134.787 135.097 135.491 136.228 136.024C137.358 136.557 138.532 136.824 139.748 136.824C141.305 136.824 142.51 136.472 143.364 135.768C144.238 135.064 144.676 134.147 144.676 133.016C144.676 132.184 144.494 131.523 144.132 131.032C143.79 130.541 143.321 130.136 142.724 129.816C142.148 129.475 141.486 129.144 140.74 128.824L137.38 127.352C136.654 127.032 135.918 126.627 135.172 126.136C134.446 125.645 133.838 125.005 133.348 124.216C132.857 123.427 132.612 122.467 132.612 121.336C132.612 120.12 132.932 119.053 133.572 118.136C134.212 117.197 135.086 116.461 136.196 115.928C137.305 115.395 138.574 115.128 140.004 115.128C141.412 115.128 142.702 115.395 143.876 115.928C145.07 116.461 146.073 117.155 146.884 118.008L145.348 119.896C144.622 119.235 143.822 118.712 142.948 118.328C142.094 117.923 141.113 117.72 140.004 117.72C138.681 117.72 137.614 118.029 136.804 118.648C136.014 119.245 135.62 120.067 135.62 121.112C135.62 121.88 135.812 122.509 136.196 123C136.601 123.491 137.102 123.885 137.7 124.184C138.297 124.483 138.905 124.771 139.524 125.048L142.852 126.488C143.748 126.872 144.558 127.331 145.284 127.864C146.03 128.397 146.617 129.059 147.044 129.848C147.47 130.637 147.684 131.608 147.684 132.76C147.684 133.997 147.364 135.128 146.724 136.152C146.084 137.155 145.166 137.955 143.972 138.552C142.777 139.128 141.358 139.416 139.716 139.416ZM157.594 139.416C156.634 139.416 155.77 139.224 155.002 138.84C154.234 138.456 153.626 137.901 153.178 137.176C152.751 136.429 152.538 135.533 152.538 134.488C152.538 132.589 153.381 131.139 155.066 130.136C156.773 129.112 159.482 128.397 163.194 127.992C163.194 127.245 163.087 126.541 162.874 125.88C162.682 125.197 162.33 124.653 161.818 124.248C161.306 123.821 160.57 123.608 159.61 123.608C158.607 123.608 157.658 123.811 156.762 124.216C155.887 124.6 155.098 125.016 154.394 125.464L153.274 123.448C153.807 123.107 154.426 122.765 155.13 122.424C155.834 122.061 156.602 121.763 157.434 121.528C158.266 121.293 159.151 121.176 160.09 121.176C161.498 121.176 162.639 121.475 163.514 122.072C164.41 122.669 165.061 123.501 165.466 124.568C165.893 125.613 166.106 126.861 166.106 128.312V139H163.706L163.45 136.92H163.354C162.543 137.603 161.647 138.189 160.666 138.68C159.706 139.171 158.682 139.416 157.594 139.416ZM158.426 137.048C159.258 137.048 160.047 136.856 160.794 136.472C161.562 136.088 162.362 135.523 163.194 134.776V129.944C161.253 130.157 159.706 130.467 158.554 130.872C157.402 131.256 156.581 131.736 156.09 132.312C155.599 132.867 155.354 133.528 155.354 134.296C155.354 135.299 155.653 136.013 156.25 136.44C156.847 136.845 157.573 137.048 158.426 137.048ZM176.297 139.416C175.572 139.416 174.985 139.267 174.537 138.968C174.089 138.669 173.759 138.232 173.545 137.656C173.332 137.059 173.225 136.355 173.225 135.544V113.528H176.169V135.736C176.169 136.184 176.244 136.504 176.393 136.696C176.564 136.888 176.756 136.984 176.969 136.984C177.055 136.984 177.14 136.984 177.225 136.984C177.311 136.963 177.428 136.941 177.577 136.92L177.993 139.16C177.78 139.224 177.545 139.277 177.289 139.32C177.033 139.384 176.703 139.416 176.297 139.416ZM190.671 139.416C189.263 139.416 187.94 139.064 186.703 138.36C185.466 137.635 184.474 136.6 183.727 135.256C183.002 133.891 182.639 132.248 182.639 130.328C182.639 128.387 183.002 126.744 183.727 125.4C184.474 124.035 185.466 122.989 186.703 122.264C187.94 121.539 189.263 121.176 190.671 121.176C191.738 121.176 192.751 121.379 193.711 121.784C194.692 122.189 195.556 122.787 196.303 123.576C197.05 124.365 197.636 125.325 198.063 126.456C198.49 127.587 198.703 128.877 198.703 130.328C198.703 132.248 198.33 133.891 197.583 135.256C196.836 136.6 195.855 137.635 194.639 138.36C193.423 139.064 192.1 139.416 190.671 139.416ZM190.671 136.984C191.674 136.984 192.548 136.707 193.295 136.152C194.063 135.597 194.66 134.819 195.087 133.816C195.514 132.813 195.727 131.651 195.727 130.328C195.727 128.984 195.514 127.811 195.087 126.808C194.66 125.805 194.063 125.027 193.295 124.472C192.548 123.917 191.674 123.64 190.671 123.64C189.668 123.64 188.783 123.917 188.015 124.472C187.268 125.027 186.682 125.805 186.255 126.808C185.85 127.811 185.647 128.984 185.647 130.328C185.647 131.651 185.85 132.813 186.255 133.816C186.682 134.819 187.268 135.597 188.015 136.152C188.783 136.707 189.668 136.984 190.671 136.984ZM204.925 139V121.624H207.325L207.613 124.152H207.677C208.509 123.32 209.384 122.616 210.301 122.04C211.24 121.464 212.307 121.176 213.501 121.176C215.336 121.176 216.68 121.763 217.533 122.936C218.387 124.088 218.813 125.773 218.813 127.992V139H215.901V128.376C215.901 126.733 215.635 125.549 215.101 124.824C214.589 124.099 213.757 123.736 212.605 123.736C211.709 123.736 210.909 123.96 210.205 124.408C209.501 124.856 208.723 125.517 207.869 126.392V139H204.925Z" fill="#D1C2B4"/>
<path d="M20.832 97.248C17.952 97.248 15.36 96.672 13.056 95.52C10.752 94.368 8.928 92.704 7.584 90.528C6.304 88.288 5.664 85.6 5.664 82.464C5.664 76.768 8.192 72.416 13.248 69.408C18.368 66.336 26.496 64.192 37.632 62.976C37.632 60.736 37.312 58.624 36.672 56.64C36.096 54.592 35.04 52.96 33.504 51.744C31.968 50.464 29.76 49.824 26.88 49.824C23.872 49.824 21.024 50.432 18.336 51.648C15.712 52.8 13.344 54.048 11.232 55.392L7.872 49.344C9.472 48.32 11.328 47.296 13.44 46.272C15.552 45.184 17.856 44.288 20.352 43.584C22.848 42.88 25.504 42.528 28.32 42.528C32.544 42.528 35.968 43.424 38.592 45.216C41.28 47.008 43.232 49.504 44.448 52.704C45.728 55.84 46.368 59.584 46.368 63.936V96H39.168L38.4 89.76H38.112C35.68 91.808 32.992 93.568 30.048 95.04C27.168 96.512 24.096 97.248 20.832 97.248ZM23.328 90.144C25.824 90.144 28.192 89.568 30.432 88.416C32.736 87.264 35.136 85.568 37.632 83.328V68.832C31.808 69.472 27.168 70.4 23.712 71.616C20.256 72.768 17.792 74.208 16.32 75.936C14.848 77.6 14.112 79.584 14.112 81.888C14.112 84.896 15.008 87.04 16.8 88.32C18.592 89.536 20.768 90.144 23.328 90.144ZM72.5257 96V43.872H81.3577V96H72.5257ZM76.9417 33.12C75.2137 33.12 73.8057 32.608 72.7177 31.584C71.6937 30.496 71.1817 29.056 71.1817 27.264C71.1817 25.536 71.6937 24.16 72.7177 23.136C73.8057 22.112 75.2137 21.6 76.9417 21.6C78.6697 21.6 80.0777 22.112 81.1657 23.136C82.2537 24.16 82.7977 25.536 82.7977 27.264C82.7977 29.056 82.2537 30.496 81.1657 31.584C80.0777 32.608 78.6697 33.12 76.9417 33.12ZM108.563 96V43.872H115.763L116.627 51.456H116.819C119.123 48.96 121.619 46.848 124.307 45.12C127.059 43.392 129.971 42.528 133.043 42.528C137.075 42.528 140.211 43.424 142.451 45.216C144.691 47.008 146.355 49.44 147.443 52.512C150.195 49.568 152.947 47.168 155.699 45.312C158.515 43.456 161.523 42.528 164.723 42.528C170.035 42.528 173.971 44.288 176.531 47.808C179.155 51.264 180.467 56.32 180.467 62.976V96H171.731V64.128C171.731 59.2 170.931 55.648 169.331 53.472C167.795 51.296 165.363 50.208 162.035 50.208C160.051 50.208 157.971 50.88 155.795 52.224C153.683 53.504 151.379 55.488 148.883 58.176V96H140.147V64.128C140.147 59.2 139.347 55.648 137.747 53.472C136.211 51.296 133.779 50.208 130.451 50.208C128.467 50.208 126.387 50.88 124.211 52.224C122.035 53.504 119.763 55.488 117.395 58.176V96H108.563ZM207.038 96V43.872H215.87V96H207.038ZM211.454 33.12C209.726 33.12 208.318 32.608 207.23 31.584C206.206 30.496 205.694 29.056 205.694 27.264C205.694 25.536 206.206 24.16 207.23 23.136C208.318 22.112 209.726 21.6 211.454 21.6C213.182 21.6 214.59 22.112 215.678 23.136C216.766 24.16 217.31 25.536 217.31 27.264C217.31 29.056 216.766 30.496 215.678 31.584C214.59 32.608 213.182 33.12 211.454 33.12ZM243.076 96V43.872H251.908V96H243.076ZM247.492 33.12C245.764 33.12 244.356 32.608 243.268 31.584C242.244 30.496 241.732 29.056 241.732 27.264C241.732 25.536 242.244 24.16 243.268 23.136C244.356 22.112 245.764 21.6 247.492 21.6C249.22 21.6 250.628 22.112 251.716 23.136C252.804 24.16 253.348 25.536 253.348 27.264C253.348 29.056 252.804 30.496 251.716 31.584C250.628 32.608 249.22 33.12 247.492 33.12ZM279.977 118.464C278.761 118.464 277.641 118.368 276.617 118.176C275.593 117.984 274.665 117.728 273.833 117.408L275.561 110.4C276.073 110.592 276.681 110.784 277.385 110.976C278.089 111.168 278.825 111.264 279.593 111.264C282.537 111.264 284.937 110.176 286.793 108C288.713 105.888 290.217 103.232 291.305 100.032L292.457 96.096L271.529 43.872H280.649L291.209 72.768C292.041 75.072 292.873 77.504 293.705 80.064C294.601 82.624 295.497 85.12 296.393 87.552H296.873C297.577 85.12 298.281 82.656 298.985 80.16C299.753 77.6 300.457 75.136 301.097 72.768L310.505 43.872H319.049L299.465 100.416C298.249 103.808 296.777 106.848 295.049 109.536C293.321 112.288 291.241 114.464 288.809 116.064C286.377 117.664 283.433 118.464 279.977 118.464Z" fill="#BDAFA2"/>
</svg>
